HIERARCHY
ROOT Hips
{
	OFFSET 0.000000 0.000000 0.000000 
	CHANNELS 6 Xposition Yposition Zposition Zrotation Yrotation Xrotation
	JOINT LeftUpLeg
	{
		OFFSET 1.363060 -1.794630 0.839290 
		CHANNELS 3 Zrotation Yrotation Xrotation
		JOINT LeftLeg
		{
			OFFSET 2.448110 -6.726130 0.000000 
			CHANNELS 3 Zrotation Yrotation Xrotation
			JOINT LeftFoot
			{
				OFFSET 2.562200 -7.039590 0.000000 
				CHANNELS 3 Zrotation Yrotation Xrotation
				JOINT LeftToeBase
				{
					OFFSET 0.157640 -0.433110 2.322550 
					CHANNELS 3 Zrotation Yrotation Xrotation
					End Site
					{
						OFFSET 0.000000 0.000000 0.000000 
					}
				}
			}
		}
	}
	JOINT RightUpLeg
	{
		OFFSET -1.305520 -1.794630 0.839290 
		CHANNELS 3 Zrotation Yrotation Xrotation
		JOINT RightLeg
		{
			OFFSET -2.542530 -6.985550 0.000000 
			CHANNELS 3 Zrotation Yrotation Xrotation
			JOINT RightFoot
			{
				OFFSET -2.568260 -7.056230 0.000000 
				CHANNELS 3 Zrotation Yrotation Xrotation
				JOINT RightToeBase
				{
					OFFSET -0.164730 -0.452590 2.363150 
					CHANNELS 3 Zrotation Yrotation Xrotation
					End Site
					{
						OFFSET 0.000000 0.000000 0.000000 
					}
				}
			}
		}
	}
	JOINT Spine
	{
		OFFSET 0.028270 2.035590 -0.193380 
		CHANNELS 3 Zrotation Yrotation Xrotation
		JOINT Spine1
		{
			OFFSET 0.056720 2.048850 -0.042750 
			CHANNELS 3 Zrotation Yrotation Xrotation
			JOINT Neck1
			{
				OFFSET -0.054170 1.746240 0.172020 
				CHANNELS 3 Zrotation Yrotation Xrotation
				JOINT Head
				{
					OFFSET 0.104070 1.761360 -0.123970 
					CHANNELS 3 Zrotation Yrotation Xrotation
					End Site
					{
						OFFSET 0.000000 0.000000 0.000000 
					}
				}
			}
			JOINT LeftArm
			{
				OFFSET 3.362410 1.200890 -0.311210 
				CHANNELS 3 Zrotation Yrotation Xrotation
				JOINT LeftForeArm
				{
					OFFSET 4.983000 -0.000000 -0.000000 
					CHANNELS 3 Zrotation Yrotation Xrotation
					JOINT LeftHand
					{
						OFFSET 3.483560 -0.000000 -0.000000 
						CHANNELS 3 Zrotation Yrotation Xrotation
						JOINT LeftHandIndex1
						{
							OFFSET 0.715260 -0.000000 -0.000000 
							CHANNELS 3 Zrotation Yrotation Xrotation
							End Site
							{
								OFFSET 0.000000 0.000000 0.000000 
							}
						}
					}
				}
			}
			JOINT RightArm
			{
				OFFSET -3.136600 1.374050 -0.404650 
				CHANNELS 3 Zrotation Yrotation Xrotation
				JOINT RightForeArm
				{
					OFFSET -5.241900 -0.000000 -0.000000 
					CHANNELS 3 Zrotation Yrotation Xrotation
					JOINT RightHand
					{
						OFFSET -3.444170 -0.000000 -0.000000 
						CHANNELS 3 Zrotation Yrotation Xrotation
						JOINT RightHandIndex1
						{
							OFFSET -0.622530 -0.000000 -0.000000 
							CHANNELS 3 Zrotation Yrotation Xrotation
							End Site
							{
								OFFSET 0.000000 0.000000 0.000000 
							}
						}
					}
				}
			}
		}
	}
}
MOTION
Frames: 17
Frame Time: 0.041667
8.809962 18.004598 -11.721265 2.607393 -10.183766 3.686747 -13.291575 -3.281811 -19.652899 -0.439716 3.257161 11.258439 -0.879579 5.946823 8.025476 0.169600 2.652700 7.313400 12.425895 10.537342 -5.693445 -6.299636 -12.932375 44.144653 -0.741825 1.904952 13.080655 -1.326700 7.294300 -20.590100 -2.636995 0.728670 6.714052 0.617933 0.298200 -0.495730 7.424535 -3.069879 21.203357 1.630500 -0.654600 9.038700 -90.346787 2.035243 0.024054 16.044820 -18.672438 -2.518745 -1.076706 -1.190603 25.515921 -7.125000 0.000000 0.000000 85.163221 -3.177209 6.456884 -13.889236 17.634164 -2.561827 0.288848 -1.549040 26.447174 7.125000 0.000000 0.000000 
8.821106 18.012810 -11.640126 2.883605 -10.024108 3.752068 -13.785613 -2.884039 -19.432040 -0.474778 3.095333 10.861394 -0.776294 5.336061 7.968602 0.209100 2.944000 8.122800 11.970599 10.183906 -6.858888 -6.604060 -13.244128 45.318607 -0.526999 0.975563 10.966071 -0.875600 5.965800 -16.685300 -2.400412 0.279790 6.314845 0.916950 0.082615 -0.675271 7.481922 -2.700563 21.157837 1.764500 -0.531300 8.881300 -90.602634 2.431846 -0.044210 16.322664 -19.068296 -2.633318 -1.119552 -1.109436 25.348872 -7.125000 0.000000 0.000000 84.718020 -3.585066 7.281709 -13.877407 17.628147 -2.565993 0.264812 -1.564952 26.934136 7.125000 0.000000 0.000000 
8.834499 18.028744 -11.568861 3.096487 -9.772220 3.892721 -14.214513 -2.572263 -19.471911 -0.473062 3.069159 10.835473 -0.660481 4.666663 8.029804 0.179700 2.730800 7.530200 11.609047 9.697089 -8.089343 -6.839504 -13.467806 46.179084 -0.304365 -0.189656 9.436286 -0.837300 5.837100 -16.312400 -2.690868 -0.007573 5.958801 0.844894 -0.052827 -0.929806 7.711356 -2.589175 21.198643 1.852700 -0.462200 8.824100 -90.293120 2.564601 0.222013 16.591667 -19.462703 -2.733334 -1.027093 -1.338200 25.595470 -7.125000 0.000000 0.000000 84.890697 -3.859734 7.532686 -13.950994 17.735769 -2.596425 0.276286 -1.568252 27.402412 7.125000 0.000000 0.000000 
8.843297 18.044092 -11.492611 3.109870 -9.569838 3.892780 -14.494738 -2.263544 -19.330966 -0.476164 3.006062 10.719574 -0.592250 4.314520 8.388602 0.088000 1.913300 5.266000 11.469362 9.326257 -9.127165 -7.058366 -13.668800 46.938333 -0.007705 -1.797950 7.924343 -0.940500 6.177000 -17.298900 -1.703054 -0.240221 6.688434 1.628929 -0.202110 -0.191842 7.342937 -2.275120 20.895991 1.815900 -0.386400 8.771100 -90.847792 1.681983 0.743634 16.575438 -19.369531 -2.726769 -1.082646 -1.294576 24.113443 -7.125000 0.000000 0.000000 84.138548 -3.255708 7.776663 -14.039076 17.878558 -2.632430 0.276250 -1.535788 27.408177 7.125000 0.000000 0.000000 
8.848478 18.048198 -11.420564 2.930308 -9.673157 3.916017 -14.364791 -2.151210 -19.140245 -0.483364 2.989729 10.667344 -0.573254 4.147289 8.122307 0.111000 2.148100 5.915100 11.668346 9.420981 -9.947779 -7.248496 -13.807246 47.541736 0.351539 -3.651461 6.352361 -0.810800 5.746400 -16.050200 -1.564734 -0.479981 7.078274 1.661611 -0.339357 0.091441 7.173318 -1.966410 21.145685 1.766500 -0.225100 8.953100 -90.749564 1.247007 1.381279 16.583743 -19.363093 -2.742045 -1.147275 -1.189161 21.439905 -7.125000 0.000000 0.000000 84.174062 -2.736689 8.212976 -14.074670 17.917752 -2.648918 0.261933 -1.530155 27.141063 7.125000 0.000000 0.000000 
8.857374 18.052597 -11.352036 2.523283 -9.821896 4.038273 -13.931656 -2.353245 -18.881615 -0.497897 2.963616 10.581632 -0.620863 4.312188 7.601598 0.212100 2.965400 8.182400 12.008769 9.547828 -10.864500 -7.395749 -13.902612 47.987726 0.713434 -5.428613 4.851177 -0.601600 4.965000 -13.808900 -0.722531 -0.511673 7.891681 1.978235 -0.385951 0.801635 7.110938 -1.929467 20.824987 1.805800 -0.244700 8.999400 -91.225802 0.430113 1.506964 16.967481 -19.875231 -2.891285 -1.125689 -1.173394 21.695034 -7.125000 0.000000 0.000000 83.560090 -1.830979 8.734403 -14.050836 17.875666 -2.638970 0.289007 -1.530012 26.263171 7.125000 0.000000 0.000000 
8.871256 18.059147 -11.280087 2.408983 -9.806979 4.262101 -13.748118 -2.809356 -18.580315 -0.512676 2.952431 10.477330 -0.770729 5.171375 7.374831 0.279400 3.399700 9.393500 12.019290 9.233712 -11.885782 -7.482859 -13.977250 48.259213 1.071663 -7.105111 3.220838 -0.436700 4.240400 -11.754100 -1.310041 -0.667427 6.766808 1.443754 -0.412617 -0.199435 7.310897 -2.121249 21.042472 1.806500 -0.297800 8.881800 -90.632981 1.767515 1.732898 17.565186 -20.758218 -3.145347 -1.040840 -1.178565 22.787887 -7.125000 0.000000 0.000000 84.138246 -2.961503 8.906896 -14.144193 18.016450 -2.675063 0.312136 -1.518537 26.190609 7.125000 0.000000 0.000000 
8.886213 18.067651 -11.213221 2.625515 -9.680003 4.358287 -14.001884 -3.278150 -18.267776 -0.512004 2.931103 10.451186 -0.925294 5.966046 7.141149 0.292300 3.476400 9.608000 11.604758 8.895482 -12.865801 -7.500848 -14.033131 48.334734 1.413885 -8.638733 1.353640 -0.334800 3.718300 -10.285300 -1.166001 -0.625283 7.046357 1.700393 -0.420559 0.390623 7.134005 -2.191496 20.380126 1.721800 -0.376000 8.566500 -90.513412 1.338112 2.409907 17.704580 -20.914554 -3.208423 -1.050950 -1.144942 22.672168 -7.125000 0.000000 0.000000 84.095977 -2.772784 8.289056 -14.265390 18.199648 -2.724787 0.277192 -1.509881 26.237907 7.125000 0.000000 0.000000 
8.896184 18.074201 -11.146649 2.745877 -9.660415 4.583758 -14.107736 -3.556814 -18.145726 -0.510221 2.978496 10.525822 -0.984872 6.255816 6.725033 0.239100 3.147100 8.688600 11.474687 8.667468 -13.652942 -7.466862 -14.021242 48.226169 1.710510 -9.917370 -0.609487 -0.272000 3.355000 -9.268800 -2.464803 -0.446969 5.330441 0.838085 -0.259405 -1.310782 7.657470 -2.698268 21.519894 1.763200 -0.484200 8.758700 -89.347345 2.767373 3.653483 17.858837 -21.175936 -3.293656 -1.001768 -1.159941 21.930976 -7.125000 0.000000 0.000000 85.457830 -4.516055 7.589003 -14.503740 18.564427 -2.818995 0.307442 -1.509032 25.752649 7.125000 0.000000 0.000000 
8.898726 18.074983 -11.077143 2.575776 -9.280589 4.404498 -14.069561 -3.703010 -17.833257 -0.491449 3.002356 10.693463 -0.984534 6.103435 6.375752 0.193500 2.832500 7.812700 11.565802 8.216330 -14.208725 -7.387898 -13.977785 47.952229 1.992018 -11.155388 -2.335556 -0.256200 3.256500 -8.993600 -0.642882 -0.629316 7.829496 2.092319 -0.467449 1.075720 7.175992 -2.406060 20.709659 1.743700 -0.458500 8.824200 -90.485083 -0.152839 2.926955 17.962511 -21.232950 -3.312043 -1.017932 -1.198548 22.781948 -7.125000 0.000000 0.000000 84.025394 -2.046872 7.930780 -14.530762 18.589048 -2.827120 0.333610 -1.502829 25.042787 7.125000 0.000000 0.000000 
8.907426 18.072442 -11.016925 2.737417 -9.543376 4.669828 -14.221561 -3.727809 -17.943043 -0.474446 3.109307 10.944455 -0.956251 5.886495 5.813537 0.182500 2.751400 7.587400 11.342714 8.237471 -15.081431 -7.288666 -13.908676 47.583703 2.281613 -12.440304 -3.563623 -0.292400 3.477500 -9.611100 -1.846393 -0.535300 5.567529 1.311796 -0.309530 -1.224231 7.627439 -2.784373 22.114724 1.796200 -0.516100 9.032200 -89.530525 1.931720 3.803630 18.194063 -21.612761 -3.431263 -0.961124 -1.221548 22.231129 -7.125000 0.000000 0.000000 85.206111 -4.281188 7.592328 -14.727940 18.904272 -2.905120 0.391274 -1.494118 25.135970 7.125000 0.000000 0.000000 
8.917886 18.066478 -10.954067 2.724167 -9.453065 4.679552 -14.259619 -3.928776 -17.855778 -0.448703 3.178760 11.225930 -0.918386 5.502667 5.091094 0.220400 3.022400 8.341200 11.210187 8.140563 -15.792700 -7.152841 -13.808671 47.070006 2.579598 -13.743739 -4.642189 -0.329200 3.687800 -10.199900 -1.209358 -0.654754 6.995627 1.774334 -0.444039 0.248913 7.559837 -2.648125 21.333922 1.792100 -0.484700 8.941700 -89.747195 -0.086913 3.370988 18.153696 -21.519601 -3.399760 -0.987500 -1.203256 22.403470 -7.125000 0.000000 0.000000 84.705432 -2.791238 7.822250 -14.770510 18.940815 -2.921063 0.406633 -1.502220 24.693369 7.125000 0.000000 0.000000 
8.923067 18.064426 -10.890818 2.774267 -9.403885 4.839285 -14.425024 -3.752090 -17.986869 -0.425410 3.269565 11.484709 -0.865732 5.161814 4.688539 0.179500 2.729100 7.525300 11.117185 8.104088 -16.435776 -6.970965 -13.665543 46.408118 2.792952 -14.663867 -5.824389 -0.237600 3.136800 -8.659900 -1.581808 -0.479294 6.481057 1.545657 -0.337741 -0.167774 8.030874 -3.073799 21.321483 1.882400 -0.637600 8.827600 -89.020113 -0.257433 4.292393 18.062559 -21.389949 -3.368057 -0.986080 -1.179477 21.939862 -7.125000 0.000000 0.000000 85.207607 -3.256195 7.315633 -14.878879 19.100928 -2.962553 0.418639 -1.487254 24.197090 7.125000 0.000000 0.000000 
8.924045 18.071562 -10.833142 2.763870 -9.473200 4.895918 -14.631654 -3.196598 -18.225195 -0.389196 3.393350 11.807991 -0.854780 5.158142 4.977156 0.103500 2.074900 5.712800 11.055486 8.157251 -16.930491 -6.727782 -13.471727 45.571311 2.814952 -14.798329 -7.348088 -0.100100 2.040700 -5.618000 -1.497427 -0.174106 6.171340 1.552500 -0.171829 -0.424245 8.561238 -3.520902 21.327390 2.067000 -0.836200 8.712700 -88.747407 -0.586310 5.318472 17.931070 -21.181308 -3.321946 -1.023836 -1.136461 21.755803 -7.125000 0.000000 0.000000 85.346339 -3.607065 6.729958 -15.016419 19.310300 -3.015226 0.426372 -1.450077 24.123807 7.125000 0.000000 0.000000 
8.923556 18.071464 -10.777909 2.561984 -9.290364 4.702472 -14.422844 -3.318536 -18.022205 -0.344236 3.569283 12.246598 -0.940727 5.678248 5.144461 0.125800 2.286100 6.296900 11.232396 8.011827 -17.074856 -6.454200 -13.231542 44.604377 2.737645 -14.557046 -8.748288 -0.059700 1.576400 -4.336400 -1.485172 0.006412 6.418697 1.310974 -0.086846 -0.420519 8.866352 -3.939965 21.560857 2.153000 -1.004100 8.814700 -88.499866 -1.230981 6.151987 17.870884 -21.091584 -3.309678 -1.066874 -1.126562 21.928508 -7.125000 0.000000 0.000000 85.532896 -3.658055 6.568825 -15.280714 19.692727 -3.122955 0.450761 -1.409692 24.091718 7.125000 0.000000 0.000000 
8.923458 18.063839 -10.726196 2.448397 -9.329278 4.711741 -14.226193 -3.660589 -17.915248 -0.302126 3.759073 12.742318 -0.985417 5.824704 4.328891 0.126900 2.296100 6.324600 11.315399 8.188620 -17.323904 -6.183941 -12.965553 43.550952 2.748608 -14.597627 -9.163826 -0.047800 1.411100 -3.880600 -2.102105 0.166492 5.900806 0.740826 0.013011 -1.084602 9.006389 -4.326815 22.480893 2.117200 -1.098200 9.123600 -87.613489 -1.327608 7.016229 17.729702 -20.920515 -3.255588 -1.021124 -1.211958 21.650490 -7.125000 0.000000 0.000000 86.276372 -4.166278 6.367737 -15.486775 19.993269 -3.213376 0.459535 -1.409583 24.018910 7.125000 0.000000 0.000000 
8.924533 18.062568 -10.675557 2.556175 -9.288432 4.793056 -14.475668 -3.534643 -18.182286 -0.240100 3.935908 13.320802 -0.891577 5.196863 3.624970 0.041300 1.311900 3.607400 11.087503 8.360606 -17.810033 -5.902024 -12.690561 42.396352 2.845121 -14.912744 -8.918285 -0.044600 1.362700 -3.747200 -1.685054 0.308135 6.449321 1.151685 0.058010 -0.499768 8.677968 -4.441696 22.777711 1.996000 -1.156000 9.310500 -87.594928 -2.884372 6.988562 17.448306 -20.482224 -3.121996 -1.019647 -1.218852 21.919805 -7.125000 0.000000 0.000000 86.043780 -3.447641 6.018605 -15.561346 20.105510 -3.245959 0.437320 -1.404855 23.708768 7.125000 0.000000 0.000000 
